# xmcd
#
# Track frame offsets:
#	150
#	19698
#	35324
#	52511
#	66544
#	85131
#	103102
#	117426
#	138974
#	157874
#	171971
#	186927
#	206220
#	224153
#	247575
#	274487
#
# Disc length: 3836
#
# Revision: 3
# Processed by: cddbd v1.5.1PL0 Copyright (c) Steve Scherf et al.
# Submitted via: CDex 1.40Release
# Normalized: r2:DSETVAR1,TDELIM( - )
#
DISCID=e50efa10
DTITLE=Various Artist - Fantastic Females Vol2 Disk 2
DYEAR=1900
DGENRE=Pop
TTITLE0=Dixie Chicks - Goodbye Earl
TTITLE1=Sixpence None The Richer - Kiss Me
TTITLE2=JoDee Messina - Because You Love Me
TTITLE3=Beccy Cole - Strong Enough To Bend
TTITLE4=Jessica andrews - Unbreakable Heart
TTITLE5=Simone Hardy - Say What I Mean
TTITLE6=Sheryl Crow - Strong Enough
TTITLE7=Emmylou Harris - I Don't Wanna To Talk About It Now
TTITLE8=Cheryl Wright - She Went Out For Cigarettes
TTITLE9=LeAnn Rimes - Big Deal
TTITLE10=Renee Stewart - Crazy Valentine
TTITLE11=Mary Chapin Carpenter - Wherever You Are
TTITLE12=The Pretenders - I'll Stand By You
TTITLE13=Mishelle BradfordJones - Stay
TTITLE14=Natalie Merchant - Carnival
TTITLE15=Shelby Lynne - Your Lies
EXTD=ID3G: 13
EXTT0=
EXTT1=
EXTT2=
EXTT3=
EXTT4=
EXTT5=
EXTT6=
EXTT7=
EXTT8=
EXTT9=
EXTT10=
EXTT11=
EXTT12=
EXTT13=
EXTT14=
EXTT15=
PLAYORDER=
